# xmcd
#
# Track frame offsets:
#  150
#  35058
#  62589
#  93099
#  124138
#  156545
#  196495
#  199498
#
# Disc length: 3134 seconds
#
# Revision: 0
# Processed by: cddbd v1.5.2PL0 Copyright (c) Steve Scherf et al.
# Submitted via: Collectorz.com_Music_Collector 6.11
#
DISCID=740c3c08
DTITLE=Eric Clapton - Yokohama Arena 24-11-1999 [CD2)
DYEAR=1999
DGENRE=Blues
TTITLE0=Gin House
TTITLE1=Cocaine
TTITLE2=Wonderful Tonight
TTITLE3=Badge
TTITLE4=Have You Ever Loved A Woman
TTITLE5=Layla
TTITLE6=Sunshine Of Your Love
TTITLE7=Sunshine Of Your Love
EXTD=
EXTT0=
EXTT1=
EXTT2=
EXTT3=
EXTT4=
EXTT5=
EXTT6=
EXTT7=
PLAYORDER=
